<?xml version="1.0" encoding="iso-8859-1"?>
<!-- Generator: Adobe Illustrator 19.0.0, SVG Export Plug-In . SVG Version: 6.00 Build 0)  -->
<svg version="1.1" id="Capa_1" xmlns="http://www.w3.org/2000/svg" xmlns:xlink="http://www.w3.org/1999/xlink" x="0px" y="0px"
	 viewBox="0 0 399.83 399.83" style="enable-background:new 0 0 399.83 399.83;" xml:space="preserve">
<g id="XMLID_23_">
	<circle id="XMLID_477_" cx="199.916" cy="77.415" r="70"/>
	<path id="XMLID_478_" d="M35.012,241.792C1.531,261.122-9.94,303.934,9.39,337.414c12.966,22.457,36.495,35.012,60.688,35.012
		c11.874,0,23.911-3.025,34.934-9.39c33.48-19.33,44.952-62.143,25.622-95.622c-12.966-22.458-36.494-35.013-60.688-35.012
		C58.072,232.402,46.034,235.428,35.012,241.792z"/>
	<path id="XMLID_479_" d="M269.196,267.415c-19.329,33.48-7.858,76.291,25.622,95.621c11.025,6.365,23.059,9.391,34.935,9.391
		c24.191,0,47.722-12.556,60.687-35.012c19.329-33.48,7.859-76.293-25.622-95.623c-11.024-6.365-23.057-9.391-34.934-9.39
		C305.693,232.403,282.161,244.959,269.196,267.415z"/>
</g>
</svg>
