<?xml version="1.0" encoding="iso-8859-1"?>
<!-- Generator: Adobe Illustrator 18.0.0, SVG Export Plug-In . SVG Version: 6.00 Build 0)  -->
<!DOCTYPE svg PUBLIC "-//W3C//DTD SVG 1.1//EN" "http://www.w3.org/Graphics/SVG/1.1/DTD/svg11.dtd">
<svg version="1.1" id="Capa_1" xmlns="http://www.w3.org/2000/svg" xmlns:xlink="http://www.w3.org/1999/xlink" x="0px" y="0px"
	 viewBox="0 0 338.339 338.339" style="enable-background:new 0 0 338.339 338.339;" xml:space="preserve">
<g>
	<polygon points="15.105,303.696 49.726,338.339 224.183,163.864 189.564,129.242 	"/>
	<polygon points="202.593,116.21 237.201,150.852 275.347,112.703 240.74,78.072 	"/>
	<path d="M199.41,27.705c8.967-9.236,18.057-9.362,27.316-0.395c-9.26-8.967-9.383-18.077-0.414-27.31
		c-8.969,9.233-18.063,9.377-27.32,0.408C208.249,9.377,208.376,18.469,199.41,27.705z"/>
	<path d="M313.193,67.546c-9.256-8.966-9.379-18.056-0.41-27.296c-8.969,9.241-18.063,9.364-27.32,0.396
		c9.258,8.967,9.385,18.08,0.418,27.312C294.847,58.727,303.937,58.581,313.193,67.546z"/>
	<path d="M322.83,104.892c-8.965,9.242-18.068,9.378-27.324,0.414c9.256,8.964,9.393,18.067,0.424,27.306
		c8.969-9.238,18.057-9.381,27.305-0.418C313.986,123.23,313.865,114.134,322.83,104.892z"/>
	<path d="M154.642,89.816c8.963-9.231,18.08-9.368,27.316-0.401c-9.236-8.966-9.387-18.06-0.42-27.299
		c-8.967,9.239-18.059,9.365-27.283,0.396C163.48,71.481,163.605,80.585,154.642,89.816z"/>
	<path d="M231.214,67.876c8.961-9.235,18.063-9.362,27.273-0.396c-9.211-8.966-9.348-18.07-0.383-27.303
		c-8.965,9.232-18.084,9.369-27.307,0.399C240.021,49.546,240.175,58.641,231.214,67.876z"/>
</g>
<g>
</g>
<g>
</g>
<g>
</g>
<g>
</g>
<g>
</g>
<g>
</g>
<g>
</g>
<g>
</g>
<g>
</g>
<g>
</g>
<g>
</g>
<g>
</g>
<g>
</g>
<g>
</g>
<g>
</g>
</svg>
