<?xml version="1.0" encoding="iso-8859-1"?>
<!-- Generator: Adobe Illustrator 18.1.1, SVG Export Plug-In . SVG Version: 6.00 Build 0)  -->
<svg version="1.1" id="Capa_1" xmlns="http://www.w3.org/2000/svg" xmlns:xlink="http://www.w3.org/1999/xlink" x="0px" y="0px"
	 viewBox="0 0 43.223 43.223" style="enable-background:new 0 0 43.223 43.223;" xml:space="preserve">
<g>
	<path style="fill:#1D1C1A;" d="M21.612,2.858c-10.341,0-18.753,8.413-18.753,18.754s8.412,18.753,18.753,18.753
		s18.753-8.412,18.753-18.753S31.953,2.858,21.612,2.858z M21.612,34.103c-6.898,0-12.491-5.592-12.491-12.491
		S14.714,9.121,21.612,9.121s12.491,5.592,12.491,12.491S28.511,34.103,21.612,34.103z M21.612,0C9.676,0,0.001,9.676,0.001,21.612
		s9.676,21.611,21.611,21.611c11.936,0,21.611-9.676,21.611-21.611S33.548,0,21.612,0z M21.612,41.365
		c-10.892,0-19.753-8.861-19.753-19.753c0-10.893,8.861-19.754,19.753-19.754s19.753,8.861,19.753,19.754
		C41.365,32.504,32.504,41.365,21.612,41.365z M24.557,17.015v-0.956c0-1.208-0.945-2.191-2.107-2.191
		c-1.258,0-1.972,0.359-2.121,1.067c-0.012,0.059-0.029,0.125-0.05,0.199c-0.07,0.24-0.166,0.429-0.284,0.554
		c-0.195,0.207-0.453,0.343-0.788,0.417c-0.109,0.024-0.323,0.06-0.741,0.094c-1.008,0.083-1.797,0.94-1.797,1.952
		c0,0.279,0.069,0.541,0.188,0.777c-0.448,0.793-0.707,1.707-0.707,2.683c-0.001,2.397,1.544,4.428,3.69,5.164v0.39
		c0,1.208,0.983,2.191,2.191,2.191h0.335c1.208,0,2.191-0.983,2.191-2.191v-0.956c1.514-0.971,2.519-2.665,2.519-4.597
		S26.071,17.986,24.557,17.015z M23.557,16.513v10.201v0.453c0,0.658-0.533,1.191-1.191,1.191h-0.335
		c-0.658,0-1.191-0.533-1.191-1.191v-0.151v-6.77c0-0.658-0.533-1.191-1.191-1.191h-0.791c-0.658,0-1.191-0.404-1.191-0.902
		c0-0.162,0.053-0.309,0.126-0.444c0.116-0.212,0.3-0.37,0.527-0.449c0.074-0.026,0.147-0.057,0.227-0.064
		c0.382-0.031,0.674-0.069,0.875-0.114c0.532-0.117,0.965-0.353,1.299-0.707c0.045-0.047,0.077-0.112,0.118-0.165
		c0.167-0.22,0.307-0.478,0.402-0.802c0.028-0.099,0.05-0.188,0.067-0.266c0.031-0.149,0.531-0.273,1.142-0.273
		s1.107,0.533,1.107,1.191C23.556,16.06,23.556,16.513,23.557,16.513z"/>
</g>
<g>
</g>
<g>
</g>
<g>
</g>
<g>
</g>
<g>
</g>
<g>
</g>
<g>
</g>
<g>
</g>
<g>
</g>
<g>
</g>
<g>
</g>
<g>
</g>
<g>
</g>
<g>
</g>
<g>
</g>
</svg>
